<svg width="42" height="114" viewBox="0 0 42 114" fill="none" xmlns="http://www.w3.org/2000/svg">
<path d="M0.179706 79.3317C2.04543 83.0074 3.85967 86.7088 5.62246 90.436C7.38524 94.1631 9.10084 97.9139 10.7693 101.688C11.7043 103.833 12.6221 105.96 13.5228 108.07L13.3942 107.761C14.0847 109.4 14.7666 111.047 15.44 112.702C15.5402 113.02 15.75 113.291 16.0319 113.468C16.178 113.554 16.3395 113.61 16.5073 113.633C16.675 113.656 16.8457 113.645 17.0094 113.602C17.1732 113.559 17.3269 113.484 17.4616 113.382C17.5964 113.279 17.7095 113.151 17.7947 113.005C17.9532 112.7 17.9988 112.349 17.9233 112.014C17.0226 107.202 15.9504 102.43 14.7066 97.6994C13.4628 92.9686 12.0324 88.2893 10.4154 83.6615C9.51474 81.0881 8.56043 78.5147 7.55251 75.9413C7.45229 75.6239 7.24251 75.3526 6.96064 75.1757C6.81287 75.0882 6.64907 75.0312 6.47891 75.008C6.30875 74.9847 6.13567 74.9958 5.96987 75.0406C5.80675 75.0853 5.65403 75.1616 5.52046 75.2654C5.38688 75.3691 5.27505 75.4982 5.1914 75.6452C5.10775 75.7922 5.05389 75.9542 5.03292 76.122C5.01194 76.2899 5.02428 76.4601 5.06918 76.6232C5.75757 79.3639 6.44594 82.0981 7.0893 84.8453C7.73265 87.5924 8.31809 90.3202 8.81347 93.0801C9.09655 94.6499 9.34531 96.2219 9.55976 97.7959L9.5083 97.4549C9.93686 100.554 10.1796 103.675 10.2353 106.803C10.2373 107.055 10.3134 107.301 10.4541 107.51C10.5947 107.72 10.7938 107.883 11.0266 107.98C11.2299 108.064 11.4519 108.093 11.67 108.064C11.9513 108.04 12.2143 107.914 12.4098 107.71C14.5543 105.021 16.8125 102.447 19.1843 99.9897C21.5583 97.5257 24.0416 95.1646 26.6343 92.9129C28.1012 91.6519 29.6023 90.4317 31.1378 89.2522L30.874 89.4516C32.2122 88.4223 33.5718 87.4208 34.9529 86.4472L33.1772 84.6844C32.3701 85.9813 31.4961 87.2354 30.5588 88.4416L30.7646 88.1843C28.645 90.897 26.2567 93.3887 23.6363 95.6214C22.9029 96.2647 22.1502 96.8695 21.3781 97.4614L21.6419 97.2619C19.8704 98.627 18.0255 99.8942 16.1155 101.058C15.5687 101.386 15.0218 101.701 14.4685 102.029L16.0255 104.049C17.6502 102.365 19.3686 100.773 21.1723 99.2821C21.6934 98.851 22.2145 98.4328 22.7485 97.9954L22.4847 98.2012C25.8501 95.6009 29.469 93.3463 33.2866 91.4718C34.3545 90.9485 35.4268 90.4553 36.5033 89.9921L36.1945 90.1207C37.7579 89.4774 39.347 88.834 40.9553 88.3387C41.2846 88.2474 41.5642 88.029 41.7325 87.7316C41.9008 87.4342 41.9441 87.0821 41.8528 86.7528C41.7615 86.4235 41.5432 86.1439 41.2458 85.9756C40.9483 85.8073 40.5963 85.764 40.2669 85.8553C32.5298 88.4012 25.3469 92.3944 19.1007 97.6222C17.3721 99.0563 15.7247 100.586 14.1662 102.203C13.9469 102.424 13.8155 102.718 13.7962 103.029C13.7769 103.34 13.8711 103.647 14.0613 103.894C14.2515 104.141 14.5247 104.31 14.8303 104.37C15.1359 104.431 15.4532 104.379 15.7231 104.223C18.8133 102.463 21.7489 100.444 24.4984 98.1884C27.1737 95.9945 29.6241 93.5398 31.8133 90.8606C33.1108 89.3073 34.3098 87.6743 35.4032 85.9711C35.548 85.7253 35.6069 85.4383 35.5708 85.1553C35.5347 84.8724 35.4056 84.6094 35.2038 84.4078C35.0371 84.2608 34.8423 84.1491 34.6312 84.0797C34.4658 84.034 34.293 84.0218 34.1228 84.0439C33.9527 84.066 33.7886 84.1219 33.6404 84.2083C30.2158 86.6071 26.9294 89.1975 23.7971 91.9672C20.7284 94.6757 17.8158 97.5561 15.0733 100.594C13.5228 102.306 12.0238 104.075 10.5698 105.883L12.7637 106.796C12.6774 102.663 12.2903 98.5408 11.6056 94.4634C10.9623 90.4553 10.0873 86.4922 9.14159 82.5485C8.61404 80.3418 8.06075 78.1351 7.50747 75.9349L5.02414 76.6168C6.81695 81.1717 8.44248 85.7867 9.90074 90.4617C11.359 95.1367 12.635 99.8546 13.7287 104.615C14.3463 107.292 14.9082 109.981 15.4143 112.683L17.8976 111.995C16.0362 107.44 14.1061 102.913 12.1075 98.4136C10.1474 94.0173 8.11866 89.6575 6.02133 85.3342C4.83327 82.8852 3.62163 80.4447 2.3864 78.0129C2.30126 77.8665 2.18808 77.7384 2.05333 77.6358C1.91859 77.5333 1.76492 77.4584 1.60115 77.4153C1.43739 77.3723 1.26675 77.362 1.09901 77.3851C0.931258 77.4081 0.769709 77.464 0.62362 77.5496C0.335463 77.7284 0.127233 78.0113 0.0421726 78.3396C-0.0428876 78.6678 0.00174436 79.0162 0.166826 79.3124L0.179706 79.3317Z" fill="#0000FF"/>
<path d="M18.612 91.6197L17.4797 56.2354L16.3603 21.0633L15.717 1.29314H13.1436C14.1472 13.7034 15.1444 26.1136 15.9486 38.5432C16.7527 50.9728 17.3382 63.2736 17.5312 75.6517C17.6384 82.5999 17.6106 89.5481 17.4476 96.4963H20.021C19.6393 84.4399 19.6071 72.3792 19.9245 60.3142C20.2419 48.305 20.9002 36.3258 21.8996 24.3766C22.4657 17.6128 23.1412 10.8619 23.9261 4.12389C23.9261 3.78263 23.7906 3.45535 23.5493 3.21405C23.308 2.97274 22.9807 2.83718 22.6394 2.83718C22.2982 2.83718 21.9709 2.97274 21.7296 3.21405C21.4883 3.45535 21.3527 3.78263 21.3527 4.12389C19.9545 16.1031 18.9058 28.1123 18.2067 40.1516C17.5076 52.1308 17.1516 64.1229 17.1388 76.1278C17.1388 82.913 17.2417 89.6982 17.4476 96.4835C17.4476 96.8247 17.5831 97.152 17.8244 97.3933C18.0657 97.6346 18.393 97.7702 18.7343 97.7702C19.0755 97.7702 19.4028 97.6346 19.6441 97.3933C19.8854 97.152 20.021 96.8247 20.021 96.4835C20.3362 84.041 20.1432 71.5922 19.6285 59.169C19.1138 46.7459 18.2968 34.4322 17.3575 22.0798C16.8364 15.1445 16.2767 8.2156 15.717 1.2867C15.7088 0.948017 15.5706 0.625473 15.3311 0.385917C15.0915 0.14636 14.7689 0.00816463 14.4303 0C14.089 0 13.7617 0.135562 13.5204 0.376866C13.2791 0.618169 13.1436 0.945448 13.1436 1.2867L14.2694 36.671L15.3953 71.8495L16.0386 91.6197C16.0386 91.961 16.1742 92.2882 16.4155 92.5295C16.6568 92.7708 16.9841 92.9064 17.3253 92.9064C17.6666 92.9064 17.9939 92.7708 18.2352 92.5295C18.4765 92.2882 18.612 91.961 18.612 91.6197Z" fill="#0000FF"/>
</svg>
