<svg width="71" height="62" viewBox="0 0 71 62" fill="none" xmlns="http://www.w3.org/2000/svg">
<path d="M21.5318 27.4058C21.4552 27.2652 21.3913 27.1183 21.3274 26.9714L21.4552 27.278C21.2704 26.8292 21.1416 26.3593 21.0719 25.879L21.1166 26.2176C21.0463 25.6833 21.0463 25.1421 21.1166 24.6078L21.0719 24.9463C21.1616 24.3197 21.3335 23.7076 21.5829 23.1257L21.4552 23.4323C21.7357 22.7778 22.0985 22.1617 22.5347 21.599L22.3303 21.8545C22.7904 21.2666 23.3203 20.7367 23.9082 20.2766L23.6527 20.4746C24.2031 20.0526 24.804 19.7007 25.4413 19.427L25.1347 19.5548C25.768 19.2977 26.4312 19.1217 27.1086 19.031L26.7701 19.0756C27.65 18.9606 28.5412 18.9606 29.4211 19.0756L29.0826 19.031C30.1305 19.1824 31.1546 19.4679 32.1297 19.8806L31.8231 19.7528C33.0422 20.2763 34.1887 20.9547 35.2343 21.7715L34.9724 21.5734C36.0536 22.397 37.0259 23.3544 37.8662 24.4225L37.6618 24.1606C38.2998 24.9761 38.8321 25.869 39.2461 26.8181L39.1119 26.5114C39.4049 27.1892 39.6089 27.9021 39.7188 28.6323L39.6677 28.2937C39.7411 28.8321 39.7411 29.3779 39.6677 29.9163L39.7124 29.5777C39.6513 30.0343 39.531 30.4809 39.3547 30.9065L39.4824 30.5998C39.3166 31.0015 39.1021 31.3812 38.8436 31.7305L39.048 31.4686C38.7048 31.9045 38.3077 32.2952 37.8662 32.6313L38.1281 32.4332C37.105 33.1666 35.9931 33.7676 34.8191 34.2219L35.1193 34.0941C33.2732 34.8735 31.4142 35.6337 29.5617 36.4003L23.8571 38.7638L20.6247 40.099C20.4624 40.1365 20.3126 40.2158 20.1903 40.3289C20.0534 40.419 19.9414 40.542 19.8645 40.6867C19.7286 40.9339 19.6748 41.2181 19.7112 41.498C19.7517 41.8073 19.904 42.0911 20.1394 42.2958C20.3747 42.5006 20.6769 42.6121 20.9888 42.6095C24.2468 42.3731 27.5239 42.2645 30.7946 42.2901C34.0653 42.3156 37.2977 42.4753 40.5365 42.7628C42.3549 42.9246 44.1734 43.1269 45.9919 43.3697L45.6533 43.325C46.5477 43.4463 47.4484 43.5741 48.3427 43.7146C48.5076 43.7624 48.6826 43.7624 48.8474 43.7146C49.0182 43.7087 49.184 43.6556 49.3265 43.5613C49.4718 43.4768 49.5991 43.3644 49.7009 43.2306C49.8027 43.0968 49.8771 42.9442 49.9198 42.7816C49.9626 42.619 49.9728 42.4496 49.9499 42.283C49.927 42.1165 49.8715 41.956 49.7865 41.811C49.6177 41.5223 49.3425 41.3113 49.0199 41.2233C45.3488 40.6483 41.6544 40.2225 37.9365 39.9457C34.3272 39.7029 30.6988 39.6199 27.0767 39.7029C25.0453 39.7476 23.0138 39.8498 20.9888 39.9967L21.3274 42.5073L28.1499 39.6773L34.9469 36.8666C36.8633 36.0744 38.8564 35.2951 40.3512 33.8067C41.1428 33.0309 41.727 32.0688 42.0504 31.0087C42.3436 29.9342 42.3895 28.8072 42.1846 27.7124C41.9892 26.6754 41.6381 25.674 41.1433 24.7419C40.6412 23.8012 40.0371 22.9186 39.3419 22.11C38.6985 21.358 37.991 20.6634 37.2274 20.0339C36.3871 19.3318 35.4848 18.7075 34.5316 18.1685C32.6638 17.0966 30.569 16.4815 28.4182 16.3735C26.4629 16.2798 24.5269 16.7978 22.8797 17.8555C22.1207 18.3492 21.4347 18.947 20.8419 19.6314C20.2423 20.3082 19.7432 21.0676 19.3599 21.8864C19.1506 22.3303 18.9754 22.7894 18.836 23.2599C18.707 23.7348 18.6193 24.2199 18.5741 24.71C18.4886 25.5686 18.5667 26.4356 18.8041 27.2652C18.9395 27.7316 19.1214 28.1831 19.3471 28.6131C19.5171 28.8994 19.7921 29.108 20.1136 29.1944C20.2779 29.2398 20.4495 29.2519 20.6184 29.23C20.7874 29.208 20.9502 29.1525 21.0974 29.0667C21.3892 28.896 21.6015 28.6166 21.6877 28.2897C21.7739 27.9628 21.727 27.6151 21.5574 27.3227L21.5318 27.4058Z" fill="#0000FF"/>
<path d="M55.9808 45.2031C56.3173 45.1993 56.6397 45.0667 56.8815 44.8326C57.005 44.722 57.0975 44.5811 57.1498 44.4238C57.2278 44.2696 57.2652 44.0981 57.2584 43.9255C57.257 43.5872 57.1214 43.2633 56.8815 43.0248C56.6403 42.7888 56.3181 42.654 55.9808 42.6479C55.6418 42.6549 55.3178 42.7895 55.0736 43.0248C54.8472 43.2716 54.7159 43.5908 54.7031 43.9255C54.7022 44.0936 54.7344 44.2603 54.798 44.416C54.8616 44.5716 54.9552 44.7132 55.0736 44.8326C55.3185 45.066 55.6425 45.1984 55.9808 45.2031Z" fill="#0000FF"/>
<path d="M11.1759 16.9037C13.9569 14.966 16.806 13.1283 19.7232 11.3908C22.5332 9.66585 25.438 8.1004 28.4239 6.70186L28.9285 6.47829C29.2863 6.31859 28.8008 6.5294 29.0179 6.43996L29.299 6.32498C29.6759 6.17167 30.0592 6.02474 30.4425 5.89059C31.1834 5.62553 31.9383 5.40161 32.7039 5.21985C33.0744 5.1368 33.4513 5.06012 33.8282 4.99624L34.0646 4.95792C34.4542 4.89403 33.809 4.95792 34.2051 4.95792C34.4031 4.95792 34.6012 4.91322 34.8056 4.90044C35.6109 4.82698 36.4213 4.82698 37.2267 4.90044L37.7122 4.94513C38.1082 4.98984 37.4567 4.90041 37.8527 4.94513L38.0891 4.98345C38.4915 5.04733 38.8876 5.13038 39.2773 5.22621C40.0687 5.41835 40.8474 5.65944 41.6089 5.94807L42.12 6.1461L42.4075 6.26747C42.3563 6.26747 42.2094 6.17804 42.4394 6.26747C42.8163 6.43356 43.1868 6.59965 43.5573 6.77851C44.2856 7.12986 45.001 7.51317 45.7101 7.91562C46.9494 8.61831 48.1546 9.3785 49.3258 10.1962L50.1307 10.7711L50.5715 11.0969L50.7439 11.2311L50.9611 11.3971L51.0953 11.4993L51.2678 11.6399L51.6958 11.9784C51.9768 12.2084 52.2643 12.4448 52.539 12.6812C54.7173 14.5313 56.721 16.5777 58.5247 18.7946C58.7419 19.0629 58.9591 19.3376 59.1635 19.6123C59.2976 19.7847 58.991 19.3759 59.2018 19.657L59.336 19.8358L59.6937 20.3149C60.1217 20.8899 60.5305 21.4776 60.9266 22.0717C61.7272 23.2684 62.4683 24.5013 63.1497 25.7704C63.5393 26.4923 63.9035 27.2269 64.2229 27.9807L64.3379 28.2681C64.4081 28.4406 64.472 28.6131 64.5359 28.7856C64.67 29.1689 64.7978 29.5522 64.9064 29.9418C65.015 30.3315 65.1108 30.7276 65.1875 31.1237C65.2194 31.277 65.245 31.4367 65.2705 31.5964C65.3344 31.986 65.2705 31.3408 65.2705 31.7369C65.2705 31.8519 65.2705 31.9733 65.2705 32.0946C65.3024 32.4536 65.3152 32.8139 65.3088 33.1742C65.3088 33.3722 65.3088 33.5703 65.2769 33.7683V33.9919C65.2769 34.0941 65.2386 34.3113 65.2769 34.0814C65.1756 34.7955 65.0022 35.4975 64.7595 36.1766C64.7084 36.33 64.6509 36.4833 64.5934 36.6302V36.6749C64.5934 36.7452 64.5359 36.8091 64.5103 36.873C64.357 37.2051 64.1973 37.5117 64.0248 37.8439C63.6723 38.4855 63.2797 39.1043 62.8494 39.6965L62.5236 40.1437C62.3703 40.3353 62.5236 40.182 62.5236 40.1437L62.3831 40.3161C62.1403 40.6228 61.8912 40.923 61.6357 41.2169C59.5386 43.5344 57.2846 45.7051 54.8898 47.7136C53.6122 48.8081 52.3346 49.8728 51.0569 50.9076L50.1626 51.6104C49.9582 51.7637 50.0732 51.6742 50.1179 51.6104L49.8177 51.8403L49.313 52.2236C48.6742 52.7282 47.9779 53.2265 47.3007 53.712C46.0285 54.6327 44.7086 55.4857 43.3465 56.2673C42.7077 56.6442 42.005 56.9955 41.3087 57.3149L40.7593 57.5577L40.4207 57.6918C40.0566 57.8324 39.6861 57.9665 39.3156 58.0815C38.6383 58.2985 37.9494 58.4777 37.2522 58.6181C36.8881 58.6948 36.5176 58.7522 36.1471 58.8097C35.8979 58.8417 36.096 58.8097 36.1471 58.8097L35.8724 58.8417L35.2336 58.9056C33.774 59.0227 32.3064 58.9992 30.8513 58.8353H30.6278C30.2509 58.797 30.8897 58.88 30.5192 58.8353L30.072 58.765C29.6759 58.7011 29.2862 58.6309 28.8966 58.5478C28.1768 58.3945 27.4614 58.2093 26.7502 57.9921C26.0475 57.7749 25.3448 57.5257 24.6612 57.2446L24.393 57.1361L23.8691 56.9061C23.5242 56.7464 23.1856 56.5803 22.847 56.4078C21.5647 55.7451 20.3365 54.9826 19.1739 54.1273L18.7331 53.8015C18.5414 53.6545 18.6947 53.7695 18.7331 53.8015L18.5159 53.629L17.6343 52.9071C17.1105 52.4514 16.5994 51.9851 16.1012 51.5081C15.0834 50.5024 14.1277 49.4358 13.2393 48.3141L12.9007 47.8861C12.7474 47.6944 12.8688 47.8414 12.9007 47.8861L12.7027 47.6241C12.4855 47.3303 12.2683 47.0365 12.0639 46.7362C11.6614 46.1741 11.2718 45.5927 10.9013 45.005C10.1246 43.7847 9.41246 42.5245 8.76763 41.2297C8.40989 40.5142 8.06494 39.7923 7.75192 39.0577V39.013L7.61138 38.668L7.43251 38.2017C7.2792 37.7928 7.13226 37.3776 6.99811 36.9624C6.75177 36.1973 6.54916 35.4188 6.39125 34.6307L6.29541 34.0941C6.29541 34.0238 6.29541 33.9536 6.29541 33.8769C6.29541 33.8003 6.2443 33.5256 6.29541 33.73V33.5767V33.3659C6.29541 33.1679 6.25708 32.9698 6.23792 32.7718C6.18677 32.0767 6.17398 31.3794 6.19959 30.6829C6.19959 30.3443 6.1996 30.0121 6.26348 29.6735C6.26348 29.5138 6.26348 29.3541 6.3082 29.1944C6.35291 29.0347 6.30819 29.0156 6.34013 28.9261C6.38485 28.5876 6.34013 29.0539 6.34013 28.792C6.55282 27.4112 6.88628 26.0517 7.33668 24.7291C7.44527 24.4225 7.55387 24.0903 7.67524 23.8157C7.73913 23.6496 7.8094 23.4834 7.87967 23.3174C7.77746 23.5473 7.87967 23.3621 7.87967 23.3174L8.01381 23.0171C8.30767 22.3783 8.65264 21.7076 8.98482 21.1007C9.317 20.4938 9.67473 19.9061 10.0516 19.3312C10.2518 19.0245 10.4647 18.7243 10.6904 18.4305C10.7735 18.3091 10.8629 18.1941 10.946 18.0791C11.029 17.9641 11.0737 17.9002 11.144 17.8172C11.2143 17.7342 11.374 17.5106 11.2079 17.7278C12.0771 16.6138 13.0272 15.5654 14.0506 14.5912C14.5936 14.0802 15.1557 13.5819 15.7307 13.1092C16.0054 12.8728 16.2928 12.6492 16.5739 12.4256C16.395 12.5662 16.5356 12.4256 16.5739 12.4256L16.8039 12.2531L17.3085 11.8827C18.5184 11.01 19.7721 10.1998 21.0648 9.45514C22.3424 8.71411 23.703 8.0306 25.0573 7.39818C25.76 7.07239 26.4627 6.75935 27.1782 6.45911L27.4081 6.36331L27.9447 6.1397L29.0179 5.7181C30.4233 5.16873 31.8415 4.66405 33.2724 4.18494C34.763 3.65897 36.2814 3.21542 37.8208 2.85624C38.2168 2.76681 38.6193 2.69012 39.0217 2.62624L39.2645 2.58791C39.3411 2.58791 39.52 2.54319 39.2645 2.58791L39.9864 2.5049C40.7429 2.43784 41.5039 2.43784 42.2605 2.5049L42.6183 2.53683C42.6694 2.53683 42.8674 2.58155 42.6183 2.53683L43.206 2.64542C43.598 2.72639 43.9842 2.83309 44.3622 2.96483L44.5922 3.04787C44.5922 3.04787 44.9499 3.1884 44.771 3.11174C44.5922 3.03508 44.9307 3.18843 44.9244 3.18204L45.1288 3.28423C45.481 3.45461 45.8224 3.64664 46.1509 3.85918C46.4511 4.04443 46.7386 4.25524 47.0197 4.49799C46.8408 4.35106 46.9813 4.46605 47.0197 4.49799L47.2369 4.67684C47.3966 4.8046 47.5563 4.93875 47.7096 5.07929C48.2654 5.56479 48.7892 6.0886 49.3066 6.61881C50.367 7.70479 51.3955 8.82911 52.4304 9.94064C54.5449 12.2212 56.6274 14.5273 58.6013 16.9676C59.074 17.5489 59.5404 18.1302 60.0003 18.7243C60.1409 18.9032 60.3069 19.114 60.5561 19.4526C60.8052 19.7911 61.0544 20.0914 61.2971 20.4491C62.1978 21.6884 63.0602 22.9532 63.8523 24.282C64.6445 25.6107 65.4174 26.9075 66.101 28.2745C66.4459 28.9645 66.7781 29.6544 67.0847 30.3571L67.2061 30.6445C67.2061 30.5934 67.1294 30.4529 67.2061 30.6893C67.2828 30.9256 67.3658 31.0789 67.4425 31.277C67.5894 31.673 67.7299 32.0691 67.8449 32.4715C67.9599 32.874 68.0493 33.1998 68.126 33.5639C68.1643 33.7683 68.2027 33.9728 68.2282 34.2027C68.2282 34.3433 68.2282 34.4838 68.2601 34.6307C68.2889 35.0199 68.2889 35.4106 68.2601 35.7998C68.2601 35.8828 68.2601 36.0553 68.2601 35.7998C68.2601 35.8956 68.2602 35.9914 68.209 36.0808C68.1707 36.2725 68.1196 36.4641 68.0685 36.6494C68.0174 36.8346 67.9599 36.9879 67.9024 37.154L67.8258 37.3521C67.8577 37.2818 67.9152 37.1093 67.8258 37.3521C67.6712 37.687 67.4984 38.0133 67.3083 38.3294C67.1295 38.6169 66.9378 38.898 66.7398 39.1663C66.5418 39.4346 66.7398 39.2046 66.7398 39.1663L66.5737 39.3771C66.4459 39.5304 66.3182 39.6773 66.184 39.8243C65.2178 40.8736 64.1828 41.8574 63.0858 42.7692C61.9615 43.753 60.8244 44.7218 59.6745 45.6758C59.0804 46.1677 58.4863 46.6532 57.8795 47.1323L57.0682 47.7711L56.8382 47.9499L56.7807 47.9947L56.3208 48.346C55.1262 49.2531 53.9188 50.1347 52.6795 50.9779C50.2179 52.6756 47.6343 54.1895 44.9499 55.5071C44.2855 55.8265 43.6148 56.1331 42.9377 56.427L42.7332 56.5164C42.9951 56.4014 42.6502 56.5164 42.6183 56.5611L42.1966 56.7336C41.8325 56.8805 41.462 57.0211 41.0851 57.1616C39.702 57.6642 38.2923 58.0908 36.8626 58.4393C36.1428 58.6181 35.4146 58.7778 34.6778 58.9184C34.3073 58.9886 33.9368 59.0461 33.5599 59.1036L33.2597 59.1483C33.2916 59.1483 33.496 59.1483 33.2597 59.1483L32.5442 59.2314C30.9939 59.3911 29.4312 59.3911 27.8809 59.2314C27.6253 59.1994 27.8361 59.2314 27.8809 59.2314L27.587 59.1867L27.0632 59.0972C26.6735 59.0205 26.2902 58.9311 25.9069 58.8289C25.5236 58.7267 25.1468 58.6053 24.7762 58.4712L24.3291 58.2987C23.9649 58.1582 24.5527 58.4073 24.1949 58.2412L23.8691 58.0943C23.206 57.777 22.5656 57.4142 21.9527 57.0083C21.6397 56.7975 21.3139 56.5675 21.02 56.3695C21.2117 56.5164 20.8859 56.2609 20.8284 56.2162L20.2918 55.7754C19.1419 54.7916 18.0815 53.7248 17.0211 52.6452L13.514 49.0359C11.1696 46.5957 8.85066 44.1298 6.64037 41.5682C6.09738 40.9294 5.56078 40.2906 5.04334 39.6518C4.99224 39.5879 4.94115 39.5304 4.89643 39.4665C4.73673 39.2749 4.84532 39.4027 4.89643 39.4665L4.54507 38.9938C4.3151 38.6744 4.10216 38.3486 3.90626 38.0164C3.71462 37.697 3.53576 37.3776 3.37605 37.0391L3.26105 36.7707C3.17801 36.5471 3.09497 36.3172 3.0247 36.0872C2.92485 35.7254 2.84382 35.3587 2.78194 34.9885C2.71168 34.6052 2.78194 35.1354 2.78194 34.899L2.74362 34.5924C2.74362 34.3816 2.71168 34.1772 2.70529 33.9536C2.67755 32.4275 2.77799 30.9018 3.00553 29.3925C3.05025 29.0539 2.96082 29.6736 3.00553 29.335C3.00905 29.269 3.00905 29.2029 3.00553 29.1369L3.08219 28.6451C3.13329 28.3129 3.19079 28.0063 3.24828 27.6549C3.36327 27.0161 3.49104 26.3773 3.63158 25.7832C3.92699 24.4989 4.30684 23.2356 4.76866 22.0014C4.81976 21.8609 4.87087 21.7267 4.92836 21.5862C4.98586 21.4457 5.15194 21.0368 5.02418 21.3435C5.15194 21.0432 5.2861 20.743 5.42663 20.4491C5.69494 19.8806 5.99519 19.3248 6.31459 18.7818C6.634 18.2388 6.95339 17.7853 7.29835 17.3125L7.375 17.2103L7.45168 17.1145L7.75192 16.7504C7.9393 16.5332 8.13094 16.3203 8.32685 16.1116C8.74487 15.6766 9.18856 15.267 9.65557 14.885L9.80887 14.7701C9.5789 14.9489 9.75777 14.8084 9.80887 14.7701C9.85998 14.7317 10.0389 14.5976 10.1602 14.5209C10.4285 14.3357 10.6968 14.1632 10.9779 13.9971C11.1306 13.9172 11.2655 13.8073 11.3746 13.6739C11.4837 13.5406 11.5647 13.3865 11.6127 13.221C11.6607 13.0555 11.6748 12.882 11.654 12.711C11.6332 12.5399 11.578 12.3748 11.4918 12.2256C11.4056 12.0765 11.2901 11.9463 11.1522 11.8429C11.0144 11.7395 10.857 11.6651 10.6897 11.6241C10.5223 11.5831 10.3484 11.5764 10.1783 11.6043C10.0083 11.6323 9.8457 11.6944 9.70029 11.7868C4.78782 14.6231 2.23257 19.9061 1.03161 25.1635C0.712201 26.5625 0.482233 27.9807 0.296977 29.4053C0.0535246 30.9792 -0.0405881 32.5727 0.0158985 34.1644C0.104078 35.9298 0.616856 37.6478 1.51072 39.1727C2.41271 40.5823 3.43432 41.9117 4.56423 43.1461C6.85757 45.8099 9.26588 48.3715 11.7061 50.9012C12.8943 52.1363 14.0868 53.3628 15.2835 54.5808C16.3494 55.7055 17.4753 56.7718 18.6564 57.7749C19.8734 58.8262 21.2246 59.7112 22.6746 60.4068C24.2952 61.133 26.0196 61.6007 27.785 61.793C31.0046 62.0837 34.2502 61.7937 37.3672 60.937C43.3784 59.4486 48.9617 56.5356 54.0402 53.0477C56.653 51.259 59.1507 49.3106 61.5846 47.2984C62.7792 46.3082 63.9546 45.2989 65.1236 44.2768C66.2391 43.3443 67.2774 42.3232 68.2282 41.2233C69.2649 40.0462 70.0284 38.6544 70.4641 37.1476C70.8676 35.3898 70.7882 33.5555 70.2341 31.8391C69.7133 30.1973 69.0484 28.6048 68.2474 27.08C67.5447 25.6746 66.7717 24.3075 65.9476 22.9788C62.5492 17.517 58.2819 12.6556 53.9061 7.96034C51.8044 5.69895 49.7346 3.18203 47.058 1.57222C44.0173 -0.261169 40.4655 -0.280339 37.0797 0.447906C35.5022 0.815582 33.9455 1.26766 32.4164 1.80218C30.9472 2.29407 29.4971 2.81791 28.0534 3.38007C25.0672 4.51075 22.1733 5.87124 19.3974 7.4493C14.0889 10.5348 9.38087 14.7317 6.45511 20.2255C5.00647 22.8943 4.05209 25.8029 3.63797 28.8112C3.24938 31.8826 3.555 35.0021 4.5323 37.9398C6.59819 43.8317 9.98266 49.1739 14.4275 53.5587C16.5865 55.6655 19.05 57.4356 21.7355 58.8097C24.5994 60.2599 27.6996 61.1859 30.8897 61.5439C33.9712 61.8987 37.0929 61.5983 40.0502 60.6623C43.1681 59.5385 46.0925 57.9373 48.7189 55.9159C51.5233 53.8973 54.2382 51.7381 56.8446 49.4639C59.3105 47.4078 61.6149 45.1654 63.7374 42.7564C65.7816 40.3289 67.4297 37.5756 67.8322 34.3816C68.2665 30.9767 67.0017 27.6293 65.4366 24.6716C62.6159 19.394 58.8204 14.6989 54.251 10.835C51.936 8.86811 49.4398 7.12487 46.7961 5.62866C43.8709 3.86607 40.6048 2.74474 37.2139 2.3388C33.7707 2.03217 30.4042 3.0415 27.2932 4.42134C24.2359 5.83611 21.2646 7.42949 18.3945 9.19324C15.4986 10.918 12.6686 12.745 9.90471 14.6743C9.74585 14.7504 9.60447 14.8587 9.48945 14.9921C9.37443 15.1256 9.28824 15.2814 9.23633 15.4498C9.18441 15.6181 9.16789 15.7954 9.18778 15.9704C9.20767 16.1455 9.26355 16.3146 9.35191 16.467C9.44027 16.6194 9.55921 16.7519 9.70124 16.8562C9.84327 16.9604 10.0053 17.0341 10.1772 17.0728C10.3491 17.1114 10.5272 17.114 10.7001 17.0805C10.8731 17.047 11.0373 16.9782 11.1823 16.8782L11.1759 16.9037Z" fill="#0000FF"/>
</svg>
