<svg width="69" height="61" viewBox="0 0 69 61" fill="none" xmlns="http://www.w3.org/2000/svg">
<path d="M20.3345 40.162L24.1099 35.6904L27.898 31.2187L31.6734 26.747L35.4424 22.2753L39.237 17.8036L39.6969 17.2479L37.5313 16.2258C37.7911 18.896 37.9338 21.5726 37.9593 24.2556C37.9849 26.9386 37.8869 29.611 37.6655 32.2727C37.5377 33.7739 37.378 35.2751 37.1736 36.7444L37.2183 36.4058C36.9883 38.137 36.7009 39.8618 36.3687 41.5802C36.2853 41.9125 36.331 42.264 36.4965 42.564C36.581 42.7093 36.6934 42.8365 36.8272 42.9384C36.961 43.0402 37.1135 43.1146 37.2761 43.1573C37.4388 43.2 37.6082 43.2102 37.7748 43.1873C37.9413 43.1645 38.1017 43.1089 38.2468 43.0239C38.533 42.8539 38.7416 42.5789 38.8281 42.2574C39.156 40.6092 39.4329 38.9504 39.6586 37.281C39.9013 35.5179 40.0994 33.7484 40.2399 31.9725C40.3804 30.1966 40.4571 28.6123 40.4954 26.9322C40.5337 25.2522 40.4954 23.5465 40.4635 21.8601C40.4315 20.1736 40.2974 18.4999 40.1441 16.8199L40.0866 16.1811C40.0745 15.9576 40.0134 15.7395 39.9077 15.5422C39.7669 15.307 39.5541 15.1234 39.3008 15.0184C39.0991 14.9345 38.8791 14.9037 38.662 14.929C38.3854 14.9628 38.1274 15.0862 37.9274 15.2803L34.1584 19.752L30.3639 24.262L26.5949 28.7337L22.8195 33.2054L19.0058 37.8048L18.5395 38.3542C18.3111 38.6023 18.1796 38.9243 18.1689 39.2613C18.1689 39.6002 18.3036 39.9251 18.5432 40.1647C18.7828 40.4043 19.1077 40.5389 19.4466 40.5389C19.7849 40.5375 20.1088 40.402 20.3473 40.162H20.3345Z" fill="#0000FF"/>
<path d="M44.468 37.3449C44.6366 37.345 44.8035 37.3118 44.9592 37.2471C45.1149 37.1824 45.2563 37.0876 45.3751 36.968C45.4961 36.8565 45.5863 36.7156 45.637 36.5591C45.7174 36.4081 45.7549 36.2381 45.7456 36.0673C45.7466 35.8991 45.7144 35.7324 45.6508 35.5768C45.5872 35.4211 45.4935 35.2795 45.3751 35.1601C45.1292 34.9283 44.8059 34.7962 44.468 34.7897C44.1314 34.7934 43.8091 34.926 43.5673 35.1601C43.4454 35.2735 43.3551 35.4166 43.3054 35.5754C43.2225 35.7256 43.1827 35.8959 43.1904 36.0673C43.1904 36.4061 43.325 36.7311 43.5646 36.9707C43.8042 37.2103 44.1292 37.3449 44.468 37.3449Z" fill="#0000FF"/>
<path d="M20.4442 10.764C20.3919 10.5919 20.3492 10.417 20.3165 10.2401C20.2893 10.162 20.2742 10.0801 20.2717 9.99742C20.2717 10.3168 20.2717 9.99741 20.2717 9.9463C20.2398 9.58928 20.2398 9.23013 20.2717 8.8731V8.68147C20.2717 8.34929 20.2142 8.95615 20.2717 8.63035C20.2717 8.47065 20.3292 8.31095 20.3612 8.15124C20.4453 7.79979 20.552 7.45412 20.6806 7.11637L20.7189 7.02693C20.77 6.89278 20.77 6.90555 20.7189 7.02693C20.7189 6.9886 20.7764 6.88637 20.7956 6.84804C20.8722 6.68195 20.9553 6.52225 21.0447 6.36893C21.212 6.02721 21.4271 5.71104 21.6835 5.4299C21.511 5.64071 21.6516 5.4299 21.6835 5.4299L21.8688 5.21269C21.971 5.09131 22.0796 4.97633 22.1882 4.86135L22.5267 4.54194L22.7376 4.3567C22.9356 4.17783 22.514 4.51002 22.7823 4.31837C23.0786 4.10484 23.3856 3.90655 23.7022 3.72428C23.8746 3.62846 24.0471 3.539 24.226 3.45595L24.4751 3.34097C24.2004 3.46873 24.5582 3.341 24.6157 3.2899C25.3308 3.01885 26.0713 2.8198 26.826 2.69577L27.0943 2.65108C27.1645 2.65108 27.4073 2.61276 27.0943 2.65108L27.6309 2.59357C28.0205 2.55525 28.4102 2.5297 28.8063 2.51692C29.675 2.47859 30.5438 2.48498 31.4126 2.51692C32.2814 2.54886 33.1502 2.61913 34.019 2.71495L34.6961 2.798L35.0091 2.83633H35.1624C35.616 2.90021 36.0632 2.97684 36.5167 3.0535C38.2862 3.36013 40.043 3.7626 41.7805 4.22893C45.0722 5.09753 48.3083 6.16416 51.4713 7.42299L52.0526 7.65935H52.1165L52.4359 7.79351C52.8192 7.9596 53.1961 8.13847 53.5794 8.31734C54.3012 8.6623 55.0167 9.02641 55.713 9.42247C56.4093 9.81854 57.1695 10.2976 57.8658 10.7831L58.3385 11.1217L58.5302 11.2623L58.6388 11.3453C58.9326 11.5689 59.2137 11.8052 59.4884 12.0416C60.025 12.5079 60.5424 12.9998 61.0343 13.5172C61.2707 13.7728 61.507 14.0347 61.737 14.2966L62.0628 14.6863C62.1139 14.7502 62.1714 14.814 62.2225 14.8843C62.2736 14.9546 62.4908 15.2293 62.2992 14.9801C63.1889 16.1486 63.9493 17.4102 64.5669 18.7428C64.5989 18.8194 64.8033 19.2921 64.6819 19.0046C64.7543 19.1665 64.8182 19.3262 64.8736 19.4838C65.0141 19.8415 65.1355 20.1992 65.2505 20.5634C65.4753 21.3007 65.6524 22.0518 65.7807 22.812C65.7807 22.8822 65.7807 22.9525 65.8126 23.0228C65.8446 23.093 65.8637 23.3997 65.8126 23.1314C65.8126 23.3358 65.8573 23.5338 65.8765 23.7319C65.9148 24.179 65.934 24.6198 65.9404 25.0606C65.9502 25.9462 65.9054 26.8316 65.8062 27.7117C65.8062 27.7947 65.8062 27.8714 65.7743 27.9544C65.8062 27.6733 65.7743 28.0694 65.7743 28.0949L65.6785 28.689C65.6018 29.1298 65.5124 29.5642 65.4166 29.9666C65.2249 30.8099 64.9886 31.6467 64.7267 32.4772C64.4647 33.3077 64.1709 34.1062 63.8515 34.9047C63.7876 35.0644 63.7237 35.2305 63.6535 35.3902C63.6535 35.4349 63.5001 35.7543 63.6215 35.4668C63.6215 35.5307 63.5704 35.5946 63.5385 35.6585C63.3915 36.0098 63.2382 36.3612 63.0721 36.7061C61.8498 39.3746 60.3511 41.9074 58.6005 44.2632L58.2938 44.6657C58.4791 44.423 58.1724 44.8126 58.1213 44.8829C57.8786 45.1832 57.6358 45.4834 57.3867 45.7772C56.9268 46.3202 56.454 46.8568 55.9622 47.3807C54.9948 48.4119 53.9688 49.3866 52.8895 50.3C52.6467 50.5108 52.3912 50.7153 52.1421 50.9388L51.7588 51.2391C51.4969 51.4435 51.976 51.0794 51.7077 51.2774L51.4777 51.4563C50.9092 51.8779 50.3342 52.2868 49.7401 52.6764C48.6099 53.4198 47.4343 54.0918 46.2203 54.6887C45.9264 54.8356 45.6262 54.9761 45.3195 55.1167L44.8915 55.3083L44.783 55.3531L44.5849 55.4361C43.8886 55.7171 43.1731 55.9791 42.4577 56.209C41.0117 56.6751 39.5316 57.0276 38.0307 57.2631L37.7113 57.3078C37.7113 57.3078 37.36 57.3589 37.5644 57.3078H37.4175H37.098C36.7148 57.3525 36.3251 57.3909 35.9354 57.4228C35.188 57.4739 34.447 57.4994 33.6996 57.4994C32.9522 57.4994 32.1345 57.4675 31.3615 57.4036C31.0038 57.4036 30.6524 57.3397 30.2947 57.3014H30.0328C29.9625 57.3014 29.7198 57.2567 30.0008 57.3014L29.362 57.2056C27.846 56.9636 26.351 56.6048 24.8904 56.1324C24.1685 55.896 23.4594 55.6405 22.7631 55.3531L22.6673 55.3147L22.4181 55.2061L21.8752 54.9633C21.511 54.7973 21.1533 54.6248 20.7956 54.4395C19.4325 53.748 18.1254 52.9513 16.886 52.0568C16.6305 51.8715 16.3686 51.6862 16.1195 51.4882L15.9278 51.3349L15.4743 50.9708C14.9441 50.5236 14.4202 50.0637 13.9156 49.591C12.9057 48.6355 11.9543 47.62 11.0665 46.5502C10.8301 46.2691 10.6065 45.988 10.3766 45.7006L10.1977 45.4642C10.0763 45.3045 9.95493 45.1448 9.83994 44.9787C9.42472 44.4166 9.02227 43.8353 8.64537 43.2476C7.85466 42.0277 7.1317 40.7651 6.4798 39.4658C6.14762 38.7886 5.84099 38.1051 5.53436 37.4216C5.43854 37.1916 5.53436 37.3705 5.53436 37.4216C5.48964 37.3258 5.45131 37.2299 5.41298 37.1341L5.22134 36.6614C5.0808 36.3101 4.94665 35.9523 4.81888 35.601C4.31106 34.2022 3.88448 32.7753 3.54126 31.3273C3.36878 30.6118 3.22186 29.8964 3.08771 29.1745C3.01744 28.7976 2.95356 28.4207 2.89606 28.0375C2.89606 27.865 2.84496 27.6925 2.82579 27.52C2.82579 27.6031 2.85773 27.7947 2.82579 27.52C2.82579 27.437 2.82579 27.2389 2.77469 27.0984C2.59153 25.5575 2.52321 24.0052 2.57027 22.4542C2.57027 21.7004 2.65971 20.9466 2.74914 20.1928C2.79386 19.8351 2.70442 20.4675 2.74914 20.1098C2.74914 20.0395 2.74914 19.9693 2.78108 19.899C2.78108 19.7265 2.83858 19.5476 2.87052 19.3752C2.94079 18.9727 3.02383 18.5767 3.11965 18.1806C3.28529 17.4561 3.49869 16.7433 3.75846 16.0469C3.75846 15.9639 3.82234 15.8872 3.85428 15.8042C3.72652 16.0853 3.92455 15.6126 3.85428 15.8042L4.06509 15.3379C4.23118 14.9993 4.40366 14.6991 4.58891 14.3477C4.77417 13.9964 4.97859 13.7089 5.22772 13.4087L5.3491 13.2362C5.3491 13.2362 5.59185 12.9168 5.41298 13.1468C5.54075 12.9807 5.68128 12.8146 5.82182 12.6549C6.30649 12.0988 6.83639 11.5839 7.40607 11.1153C7.48912 11.0515 7.57217 10.9876 7.64883 10.9173C7.45079 11.077 7.59772 10.962 7.64883 10.9173C7.80214 10.8023 7.95545 10.6873 8.11516 10.5787C8.44095 10.3487 8.75396 10.1379 9.1117 9.93991C9.73071 9.56715 10.3706 9.23015 11.0281 8.93058L11.4945 8.7198H11.5711L11.8075 8.62396C12.1716 8.47064 12.5421 8.33012 12.919 8.19596C13.7175 7.9085 14.5288 7.64657 15.3465 7.41659C17.0103 6.94721 18.7023 6.58448 20.4123 6.33061L20.7125 6.28592C20.7764 6.28592 21.0383 6.24121 20.7892 6.28592L21.3897 6.21563C21.8241 6.15813 22.2648 6.11343 22.7056 6.07511C23.5787 5.99845 24.4602 5.94094 25.3503 5.90261C28.7993 5.79293 32.2518 5.93597 35.6799 6.33061C36.5423 6.42643 37.4047 6.52867 38.2351 6.64366C38.6248 6.69476 38.0818 6.64366 38.3182 6.64366L38.6184 6.68834L39.2189 6.77139L40.5604 6.96942C42.3044 7.24411 44.0355 7.55714 45.7603 7.94042C47.4851 8.32371 49.1971 8.79005 50.8708 9.34582C51.7204 9.6269 52.5509 9.93353 53.375 10.2721L53.6688 10.3871L53.7774 10.4318L54.2438 10.6362C54.5823 10.7895 54.9273 10.9492 55.2595 11.1153C56.5951 11.761 57.8657 12.5333 59.054 13.4214L59.2584 13.5811L59.6609 13.9197C59.9505 14.171 60.2315 14.4329 60.5041 14.7055C60.7788 14.9801 61.0407 15.2612 61.2962 15.555L61.6412 15.9639L61.7753 16.13C61.5901 15.8936 61.8648 16.2578 61.8967 16.3025C62.3431 16.9087 62.7405 17.5495 63.0849 18.2189C63.2574 18.5575 63.4171 18.9024 63.5704 19.2538C63.6598 19.4454 63.4618 18.9727 63.5704 19.2985L63.6918 19.6051C63.7684 19.8096 63.8451 20.014 63.9154 20.2439C64.1739 20.9776 64.3872 21.7264 64.5542 22.4862C64.6308 22.8503 64.6947 23.2144 64.7522 23.5849C64.7522 23.6935 64.7905 23.8085 64.8033 23.9171C64.765 23.6488 64.8033 23.9171 64.8033 23.9682L64.88 24.607C65.0301 26.1707 65.0301 27.7451 64.88 29.3087C64.88 29.5003 64.8416 29.692 64.8161 29.8772C64.7905 30.0625 64.8161 30.0497 64.7841 30.1327C64.8353 29.8069 64.7841 30.1327 64.7841 30.203C64.7267 30.5799 64.6628 30.9504 64.5925 31.3209C64.452 32.03 64.2923 32.7263 64.1006 33.4226C63.909 34.1189 63.6662 34.8536 63.4107 35.5499C63.2957 35.8693 63.1679 36.1887 63.0402 36.4953L62.9891 36.6231C63.0657 36.4378 62.938 36.7444 62.9316 36.7508C62.8549 36.9339 62.7719 37.1192 62.6824 37.3066C62.0799 38.6119 61.3794 39.8696 60.5871 41.0692C60.4019 41.3439 60.2103 41.6186 60.0186 41.8869L59.7311 42.2829L59.5523 42.5257C59.4756 42.6215 59.3734 42.7493 59.5076 42.5768C59.0604 43.1454 58.6004 43.6947 58.1149 44.2313C57.1798 45.2549 56.1675 46.2053 55.087 47.074L54.9337 47.189C54.6845 47.3934 55.1509 47.0293 54.8953 47.189L54.5121 47.4765L53.6624 48.077C53.0236 48.5178 52.3273 48.9202 51.6374 49.3035C50.9475 49.6868 50.2448 50.0189 49.5293 50.332C49.5293 50.332 49.1588 50.4853 49.4271 50.3767L49.2227 50.4597L48.7116 50.6642C48.3156 50.8111 47.9131 50.9516 47.5107 51.0858C46.0335 51.5735 44.5186 51.9389 42.9815 52.1781L42.6557 52.2293H42.5024H42.3427L42.0169 52.2676C41.6144 52.3123 41.2184 52.3442 40.8159 52.3762C40.0494 52.4337 39.2828 52.4592 38.5162 52.4592C37.7496 52.4592 36.9 52.4592 36.1015 52.3762C35.731 52.3762 35.3669 52.3187 35.0027 52.2804L34.4598 52.2165L34.1276 52.1781H34.0317C32.4452 51.9449 30.8749 51.6121 29.3301 51.1816C27.7519 50.7421 26.1993 50.2154 24.6795 49.6037L24.1493 49.3865L23.9832 49.3163L23.8171 49.246C23.4275 49.0799 23.0378 48.9074 22.6545 48.7285C21.8816 48.3772 21.1214 48.0067 20.3676 47.617C17.3987 46.0695 14.5387 44.3215 11.8075 42.3851C11.1687 41.9444 10.5299 41.4972 9.94216 41.0373L9.55248 40.737L9.34167 40.5709C9.05421 40.3474 8.77313 40.111 8.49205 39.8746C7.93629 39.3955 7.3933 38.9036 6.87586 38.3734C6.64589 38.1371 6.41592 37.8879 6.19872 37.6388C6.08373 37.5174 5.97514 37.3897 5.87293 37.2619L5.68128 37.0255C5.64934 37.0255 5.44492 36.7189 5.63018 36.968C5.18572 36.378 4.78436 35.7568 4.42921 35.1091C4.26312 34.8089 4.12258 34.5022 3.97566 34.1956C3.82873 33.8889 4.03954 34.3617 3.97566 34.1956L3.87984 33.9529C3.80318 33.7612 3.73291 33.5632 3.66903 33.3651C3.55034 32.9977 3.45013 32.6246 3.36879 32.2472C3.31768 32.0215 3.27296 31.8086 3.23463 31.6084C3.23463 31.5062 3.2027 31.4104 3.18992 31.3082C3.17715 31.206 3.18992 31.1421 3.18992 31.3082V31.1229C3.0953 30.2362 3.06115 29.344 3.08771 28.4527C3.08771 27.6094 3.17714 26.7726 3.27296 25.9357C3.27296 25.9357 3.33045 25.5142 3.27296 25.808L3.31129 25.5141C3.34323 25.2969 3.38156 25.0861 3.4135 24.8753C3.49016 24.4473 3.57321 24.0257 3.66903 23.5977C3.85429 22.7992 4.07148 22.0071 4.30784 21.2277C4.44199 20.8444 4.58252 20.4611 4.72945 20.0842L4.83806 19.816C4.73585 20.0715 4.88277 19.7201 4.88915 19.6946C4.98498 19.4838 5.0808 19.273 5.18301 19.0558C5.50935 18.3755 5.87406 17.7143 6.27538 17.0754C6.45425 16.788 6.6395 16.5133 6.83115 16.2386L7.15055 15.7914L7.29748 15.5998C7.45079 15.389 7.16333 15.7659 7.36775 15.504C8.23608 14.4185 9.20499 13.4176 10.2616 12.5143C10.5171 12.2908 10.779 12.0799 11.0409 11.8755C11.0893 11.8337 11.1405 11.7952 11.1942 11.7605C10.9259 11.9458 11.1942 11.7605 11.2389 11.7222L11.6989 11.3836C12.2419 10.9876 12.804 10.6107 13.3726 10.2593C14.5447 9.5291 15.756 8.86374 17.001 8.26622C17.6398 7.96598 18.2276 7.6849 18.8408 7.41659C19.1347 7.28244 19.4285 7.1547 19.7288 7.03332L19.9587 6.93749L20.3995 6.75864C21.6324 6.25398 22.8845 5.78125 24.1302 5.31492C24.2921 5.27056 24.4438 5.19471 24.5764 5.0917C24.709 4.98869 24.8201 4.86054 24.9031 4.71459C24.9862 4.56863 25.0397 4.40773 25.0605 4.2411C25.0813 4.07446 25.0691 3.90534 25.0245 3.74343C24.9801 3.58145 24.9043 3.42982 24.8013 3.29719C24.6983 3.16455 24.5701 3.05351 24.4242 2.97045C24.2782 2.88739 24.1173 2.83391 23.9507 2.81309C23.784 2.79226 23.6149 2.80453 23.453 2.84911C18.0231 4.87415 12.5102 7.09082 8.12155 10.994C5.817 13.0375 3.97086 15.5454 2.70442 18.353C1.22082 21.7445 0.463567 25.4089 0.481357 29.1107C0.434385 30.9619 0.706664 32.8073 1.28626 34.5661C1.84795 36.1117 2.65464 37.5568 3.67542 38.8461C5.59185 41.2992 8.1471 43.1773 10.6512 44.9404C16.2728 48.8691 22.4181 52.2484 29.0746 54.0115C35.4946 55.7171 42.4513 55.8066 48.7564 53.5707C51.8579 52.4797 54.7411 50.8467 57.2717 48.7477C59.5399 46.853 61.5009 44.6184 63.0849 42.1232C66.563 36.7811 68.0906 30.4022 67.4097 24.064C67.0558 20.6229 65.7753 17.3423 63.7046 14.5713C61.6946 12.1301 59.1476 10.1865 56.2624 8.89225C49.6954 5.76846 42.3171 4.58665 35.1433 3.85201C27.9694 3.11738 20.6423 3.21321 13.7431 5.37239C10.6385 6.34338 7.58494 7.69128 5.14468 9.88879C2.76669 12.129 1.15509 15.0616 0.538847 18.27C-0.0888809 21.4527 -0.168812 24.7192 0.30249 27.9288C0.706653 31.0573 1.47635 34.1275 2.59582 37.0766C4.71546 42.776 8.1494 47.8952 12.6188 52.0184C17.4238 56.3633 23.4418 59.1361 29.8667 59.9653C36.1847 60.7504 42.5917 59.5823 48.2261 56.6179C53.476 53.7756 57.9855 49.7408 61.3921 44.8382C63.1423 42.3767 64.6222 39.7338 65.8062 36.9552C67.318 33.6431 68.2328 30.09 68.5084 26.4596C68.6885 23.036 67.938 19.6276 66.3364 16.5963C64.9221 13.9172 62.9639 11.563 60.5871 9.68437C57.7431 7.53929 54.584 5.8477 51.2222 4.66971C47.8723 3.39854 44.4484 2.33189 40.9692 1.47565C37.3509 0.544888 33.6344 0.0494974 29.8986 0C26.5513 0 22.9611 0.568544 20.4634 2.99603C19.3395 4.06239 18.5177 5.40706 18.0813 6.89358C17.6448 8.38011 17.6094 9.95562 17.9784 11.4603C18.0233 11.6222 18.0996 11.7737 18.2031 11.9061C18.3065 12.0385 18.435 12.1492 18.5812 12.232C18.7274 12.3147 18.8885 12.3679 19.0553 12.3884C19.222 12.4089 19.3912 12.3963 19.5531 12.3514C19.715 12.3066 19.8665 12.2302 19.9989 12.1268C20.1313 12.0234 20.242 11.8949 20.3248 11.7487C20.4075 11.6024 20.4607 11.4413 20.4812 11.2746C20.5016 11.1078 20.4891 10.9387 20.4442 10.7768V10.764Z" fill="#0000FF"/>
</svg>
